<svg width="112" height="109" viewBox="0 0 112 109" fill="none" xmlns="http://www.w3.org/2000/svg">
<path d="M56.354 1.55918V0.779594C56.354 0.18428 56.3115 0 56.1416 0C55.9717 0 55.9292 0.18428 55.9292 0.779594V1.55918H55.2212C54.8389 1.55918 54.5133 1.61588 54.5133 1.70092C54.5133 1.77179 54.5982 1.84266 54.6973 1.85683C54.7823 1.85683 55.0938 1.87102 55.3628 1.88519L55.8584 1.91353L55.9009 3.10418C55.9292 4.12473 55.915 4.28064 55.7168 4.20977C55.4478 4.09637 55.4336 4.30899 55.7168 4.53577C55.8584 4.64917 55.9292 4.97517 55.9292 5.47127C55.9292 6.05241 55.9858 6.23669 56.1416 6.23669C56.2973 6.23669 56.354 6.08076 56.354 5.66972C56.354 5.25866 56.4106 5.10274 56.5664 5.10274C56.8496 5.10274 56.8354 4.87595 56.5664 4.76256C56.3823 4.69169 56.354 4.43656 56.3823 3.30262L56.4248 1.91353L57.1044 1.87102C57.9965 1.81432 57.9681 1.55918 57.0619 1.55918H56.354Z" fill="#49060D"/>
<path d="M56.1416 7.37062C56.977 7.37062 56.9911 7.35645 56.7788 6.93122C56.6796 6.74696 56.4814 6.66191 56.1416 6.66191C55.8018 6.66191 55.6035 6.74696 55.5044 6.93122C55.292 7.35645 55.3062 7.37062 56.1416 7.37062Z" fill="#49060D"/>
<path d="M58.9593 9.87946C58.7186 9.07153 58.2938 8.49039 57.7274 8.15021C57.2035 7.85255 56.9345 7.79585 56.0566 7.79585C54.9381 7.81003 54.4142 8.05099 53.8336 8.80222C53.6212 9.07153 53.2389 9.93616 53.2389 10.1488C53.2389 10.1771 54.5558 10.2055 56.1558 10.2055H59.0584L58.9593 9.87946Z" fill="#49060D"/>
<path d="M56.1416 11.4811C59.6531 11.4811 59.7522 11.467 59.7522 11.1977C59.7522 10.9284 59.6531 10.9142 56.1416 10.9142C52.6301 10.9142 52.531 10.9284 52.531 11.1977C52.531 11.467 52.6301 11.4811 56.1416 11.4811Z" fill="#49060D"/>
<path d="M58.9027 17.8596V15.0247V12.1899H56.1416H53.3805V15.0247V17.8596H56.1416H58.9027Z" fill="#49060D"/>
<path d="M54.2584 18.6675C55.2496 18.6959 56.9062 18.6959 57.9398 18.6675C58.9734 18.6533 58.1664 18.625 56.1416 18.625C54.1168 18.625 53.2673 18.6533 54.2584 18.6675Z" fill="#49060D"/>
<path d="M60.3186 20.1274V19.7731V19.4187H56.0708H51.823V19.7731V20.1274H56.0708H60.3186Z" fill="#49060D"/>
<path d="M73.7133 34.4009C73.0336 28.2351 68.3752 23.1182 61.6779 21.1905C60.446 20.8362 60.3469 20.8362 55.9434 20.8503C51.7239 20.8503 51.4124 20.8787 50.3363 21.1763C43.6814 23.0899 38.8248 28.3627 38.2867 34.245L38.1876 35.2939H56H73.8124L73.7133 34.4009Z" fill="#49060D"/>
<path d="M26.4212 37.42C25.9257 37.42 25.9115 37.4059 25.9115 36.8531C25.9115 36.442 25.8549 36.2861 25.6991 36.2861C25.5434 36.2861 25.4867 36.442 25.4867 36.8531C25.4867 37.4059 25.4726 37.42 24.977 37.42C24.3398 37.42 24.3823 37.7602 25.0336 37.8169C25.4726 37.8594 25.4867 37.8878 25.4867 38.4973C25.4867 38.9509 25.4301 39.1209 25.2743 39.1209C25.1611 39.1209 25.0619 39.1918 25.0619 39.2627C25.0619 39.3477 25.1611 39.447 25.2743 39.4895C25.4301 39.5603 25.4867 39.7871 25.4867 40.3399C25.4867 40.9211 25.5434 41.1053 25.6991 41.1053C25.8549 41.1053 25.9115 40.9494 25.9115 40.5242C25.9115 40.0706 25.954 39.9572 26.1239 40.0281C26.2372 40.0706 26.3363 40.0564 26.3363 39.9856C26.3363 39.9147 26.2372 39.7871 26.1239 39.6879C25.9823 39.5745 25.9115 39.2485 25.9115 38.6815C25.9115 37.8594 25.9115 37.8594 26.3646 37.8169C27.0159 37.7602 27.0584 37.42 26.4212 37.42Z" fill="#49060D"/>
<path d="M87.023 37.42C86.5274 37.42 86.5133 37.4059 86.5133 36.8531C86.5133 36.442 86.4566 36.2861 86.3009 36.2861C86.1451 36.2861 86.0885 36.442 86.0885 36.8531C86.0885 37.4059 86.0743 37.42 85.5929 37.42C85.2531 37.42 85.0973 37.4909 85.0973 37.6326C85.0973 37.7744 85.2531 37.8453 85.5929 37.8453C86.0885 37.8453 86.0885 37.8453 86.0885 38.4831C86.0885 39.0501 86.046 39.1209 85.777 39.1209L85.4513 39.1351L85.777 39.3903C86.0177 39.6029 86.0885 39.8155 86.0885 40.3825C86.0885 40.9352 86.1451 41.1053 86.3009 41.1053C86.4566 41.1053 86.5133 40.9494 86.5133 40.5242C86.5133 40.0706 86.5558 39.9572 86.7257 40.0281C86.8389 40.0706 86.9381 40.0564 86.9381 39.9856C86.9381 39.9147 86.8389 39.7871 86.7257 39.6879C86.5841 39.5745 86.5133 39.2485 86.5133 38.6815C86.5133 37.8594 86.5133 37.8594 86.9664 37.8169C87.6177 37.7602 87.6602 37.42 87.023 37.42Z" fill="#49060D"/>
<path d="M75.7522 37.0373L74.6619 36.9381C73.5575 36.8531 38.131 36.8672 36.9274 36.9523L36.2478 37.009V37.7177V38.4122H56H75.7522V37.7177V37.0373Z" fill="#49060D"/>
<path d="M55.7876 39.6879C75.2 39.6879 77.7345 39.6596 77.7345 39.4753C77.7345 39.291 75.2 39.2627 55.7876 39.2627C36.3752 39.2627 33.8407 39.291 33.8407 39.4753C33.8407 39.6596 36.3752 39.6879 55.7876 39.6879Z" fill="#49060D"/>
<path d="M76.6018 41.403C76.6018 40.8077 76.5451 40.5525 76.3894 40.4958C76.1345 40.3966 35.823 40.3966 35.5823 40.4958C35.4549 40.5384 35.3982 40.8644 35.3982 41.403V42.2393H56H76.6018V41.403Z" fill="#49060D"/>
<path d="M25.8124 43.4441C26.4354 43.2457 26.6761 42.5936 26.2513 42.1826C25.7558 41.6865 24.9204 42.0267 24.9204 42.7212C24.9204 43.1039 25.4584 43.5433 25.8124 43.4441Z" fill="#49060D"/>
<path d="M85.7345 43.2315C86.4708 43.841 87.5327 42.8488 86.8531 42.1826C86.7398 42.055 86.485 41.9558 86.3009 41.9558C85.6354 41.9558 85.2531 42.8346 85.7345 43.2315Z" fill="#49060D"/>
<path d="M36.446 43.359C36.4885 43.1181 36.531 42.8204 36.531 42.7212C36.531 42.5795 36.3044 42.5228 35.6956 42.5228C34.7894 42.5228 34.8319 42.4519 35.0442 43.4016C35.115 43.7559 35.1717 43.7984 35.7381 43.7984C36.3186 43.7984 36.3611 43.7701 36.446 43.359Z" fill="#49060D"/>
<path d="M39.8584 43.7984C40.4956 43.7984 40.6372 43.6284 40.6372 42.8346C40.6372 42.5511 40.5664 42.5228 39.8584 42.5228C39.1504 42.5228 39.0796 42.5511 39.0796 42.8346C39.0796 43.6284 39.2212 43.7984 39.8584 43.7984Z" fill="#49060D"/>
<path d="M45.3664 43.7984C46.046 43.7984 46.1593 43.6709 46.1593 42.9338C46.1593 42.5369 46.1451 42.5228 45.4089 42.5228C44.6159 42.5228 44.446 42.5795 44.531 42.8488C44.5593 42.948 44.6159 43.189 44.6584 43.4016C44.7434 43.7559 44.8142 43.7984 45.3664 43.7984Z" fill="#49060D"/>
<path d="M52.7292 43.359C52.7717 43.1181 52.8142 42.8204 52.8142 42.7212C52.8142 42.5795 52.6018 42.5228 52.0637 42.5228C51.2708 42.5228 51.1009 42.5795 51.1858 42.8488C51.2142 42.948 51.2708 43.189 51.3133 43.4016C51.3982 43.7559 51.469 43.7984 52.0212 43.7984C52.6018 43.7984 52.6442 43.7701 52.7292 43.359Z" fill="#49060D"/>
<path d="M59.9504 43.7984C60.6584 43.7984 60.6726 43.7984 60.8 43.0472L60.8991 42.5228H60.0212H59.1575L59.2425 42.9622C59.285 43.2031 59.3274 43.5008 59.3274 43.6C59.3274 43.7418 59.5115 43.7984 59.9504 43.7984Z" fill="#49060D"/>
<path d="M67.4124 43.2315C67.469 42.9622 67.4832 42.6929 67.4549 42.6362C67.4124 42.5653 67.0301 42.5228 66.6053 42.5228C65.9115 42.5228 65.8407 42.5511 65.8407 42.8346C65.8407 43.0189 65.8832 43.3023 65.9257 43.4866C66.0106 43.7701 66.0956 43.8126 66.6619 43.7701C67.285 43.7276 67.3274 43.6992 67.4124 43.2315Z" fill="#49060D"/>
<path d="M72.1416 43.7984C72.7788 43.7984 72.9203 43.6284 72.9203 42.8346C72.9203 42.5511 72.8496 42.5228 72.1416 42.5228C71.3062 42.5228 71.292 42.5369 71.4478 43.359C71.5327 43.7701 71.5752 43.7984 72.1416 43.7984Z" fill="#49060D"/>
<path d="M76.9699 43.4016C77.0124 43.189 77.0832 42.9055 77.1257 42.7637C77.1823 42.5511 77.0832 42.5228 76.3044 42.5228H75.4407L75.5257 42.9622C75.5681 43.2031 75.6106 43.5008 75.6106 43.6C75.6106 43.7418 75.7947 43.7984 76.2478 43.7984C76.8283 43.7984 76.885 43.7559 76.9699 43.4016Z" fill="#49060D"/>
<path d="M25.6283 44.9324C26.6619 44.9324 27.3274 44.8757 27.3274 44.7906C27.3274 44.7056 26.6619 44.6489 25.6283 44.6489C24.5947 44.6489 23.9292 44.7056 23.9292 44.7906C23.9292 44.8757 24.5947 44.9324 25.6283 44.9324Z" fill="#49060D"/>
<path d="M36.3469 55.3221C36.2903 54.0323 36.2478 51.0982 36.2478 48.802V44.6489H35.6814H35.115V49.0429C35.115 52.8558 35.1434 53.4369 35.3274 53.4369C35.4973 53.4369 35.5398 53.6212 35.5398 54.2165C35.5398 54.8118 35.4973 54.9961 35.3274 54.9961C35.1575 54.9961 35.115 55.2371 35.115 56.3427V57.6892H35.7805H36.4319L36.3469 55.3221Z" fill="#49060D"/>
<path d="M38.3717 49.9217C38.3717 46.2789 38.3292 44.9466 38.2018 44.819C38.0035 44.6206 37.6779 44.6064 37.3805 44.7906C37.1965 44.904 37.1681 45.6553 37.1257 49.8934L37.0832 54.8544H37.7345H38.3717V49.9217Z" fill="#49060D"/>
<path d="M40.4956 53.8196C40.4956 51.7077 40.4531 48.7736 40.3965 47.2995L40.3115 44.6489H39.7593H39.2212V51.1691V57.6892H39.8584H40.4956V53.8196Z" fill="#49060D"/>
<path d="M43.7522 45.23L43.3841 44.9466C42.8177 44.5072 42.1522 44.5497 41.7133 45.0883L41.3451 45.5277V50.191V54.8544H42.5487H43.7522V50.0493V45.23Z" fill="#49060D"/>
<path d="M46.0177 57.6892V51.1691V44.6489H45.3805H44.7434V51.1691V57.6892H45.3805H46.0177Z" fill="#49060D"/>
<path d="M50.4071 50.4462C50.4071 45.5986 50.3646 45.2726 49.5434 44.8615C49.0336 44.5922 48.3257 44.6064 47.8301 44.8757C47.0372 45.3009 47.0089 45.4994 47.0089 50.3895V54.8544H48.708H50.4071V50.4462Z" fill="#49060D"/>
<path d="M52.6301 52.6148C52.5735 49.8367 52.531 46.9026 52.531 46.0947V44.6489H51.9646H51.3982V51.1691V57.6892H52.0637H52.715L52.6301 52.6148Z" fill="#49060D"/>
<path d="M57.9681 45.6978C57.8124 45.4852 57.515 45.1734 57.3027 45.0174C56.8212 44.6631 55.5894 44.5639 54.9947 44.8473C54.754 44.9607 54.3717 45.2867 54.1451 45.5844L53.7345 46.1088L53.692 50.4887L53.6496 54.8544H56H58.3504L58.308 50.4745C58.2655 46.2931 58.2513 46.0663 57.9681 45.6978Z" fill="#49060D"/>
<path d="M60.6018 57.6892V51.1691V44.6489H60.0354H59.469V48.802C59.469 51.0982 59.4265 54.0323 59.3699 55.3221L59.285 57.6892H59.9363H60.6018Z" fill="#49060D"/>
<path d="M64.9911 50.3895C64.9911 45.471 64.9628 45.2867 64.1416 44.8615C63.2637 44.4079 62.2159 44.7339 61.8053 45.5844C61.6354 45.9529 61.5929 46.8176 61.5929 50.4462V54.8544H63.292H64.9911V50.3895Z" fill="#49060D"/>
<path d="M67.2566 57.6892V51.1691V44.6489H66.6903H66.1239V49.0146C66.1239 51.4242 66.0814 54.3583 66.0248 55.5347L65.9398 57.6892H66.5911H67.2566Z" fill="#49060D"/>
<path d="M70.6549 50.2336C70.6549 45.5277 70.6265 45.23 70.1027 44.8332C69.7204 44.5355 68.9841 44.6206 68.6018 45.0033L68.2478 45.3434V50.106V54.8544H69.4513H70.6549V50.2336Z" fill="#49060D"/>
<path d="M72.7788 57.6892V51.1691V44.6489H72.2407H71.6885L71.6035 49.1421C71.5469 51.6085 71.5044 54.5425 71.5044 55.6623V57.6892H72.1416H72.7788Z" fill="#49060D"/>
<path d="M74.9027 50.0209C74.9027 46.9735 74.846 45.1025 74.7611 44.9182C74.5911 44.6206 74.0531 44.5639 73.7982 44.819C73.6708 44.9466 73.6283 46.2789 73.6283 49.9217V54.8544H74.2655H74.9027V50.0209Z" fill="#49060D"/>
<path d="M76.6726 53.4369C76.8566 53.4369 76.885 52.8558 76.885 49.0429V44.6489H76.3186H75.7522V51.1691V57.6892H76.3186H76.885V56.3427C76.885 55.2371 76.8425 54.9961 76.6726 54.9961C76.5027 54.9961 76.4602 54.8118 76.4602 54.2165C76.4602 53.6212 76.5027 53.4369 76.6726 53.4369Z" fill="#49060D"/>
<path d="M86.3009 44.9324C87.3912 44.9324 88.0708 44.8757 88.0708 44.7906C88.0708 44.7056 87.3912 44.6489 86.3009 44.6489C85.2106 44.6489 84.531 44.7056 84.531 44.7906C84.531 44.8757 85.2106 44.9324 86.3009 44.9324Z" fill="#49060D"/>
<path d="M33.246 50.999C32.9062 49.128 31.4761 47.3704 29.508 46.4065L28.4035 45.8537L25.8549 45.8254C23.5327 45.797 23.2212 45.8112 22.5133 46.0947C20.1204 47.016 18.4779 48.9295 18.0673 51.2683L17.9965 51.736H25.685H33.3735L33.246 50.999Z" fill="#49060D"/>
<path d="M93.8195 51.0557C93.5788 49.2697 92.0779 47.3704 90.1381 46.4065L89.0053 45.8537L86.4566 45.8112C84.0354 45.7828 83.8513 45.797 83.0867 46.123C81.4159 46.8176 79.9292 48.0791 79.2779 49.3548C79.0372 49.8225 78.5841 51.3108 78.5841 51.6226C78.5841 51.6793 82.0389 51.736 86.2442 51.736H93.9186L93.8195 51.0557Z" fill="#49060D"/>
<path d="M25.6425 53.4369C31.292 53.4369 34.2655 53.3944 34.2655 53.2952C34.2655 53.196 31.2637 53.1535 25.5434 53.1535C19.7805 53.1535 16.8637 53.196 16.9204 53.2952C16.977 53.3802 20.0354 53.4369 25.6425 53.4369Z" fill="#49060D"/>
<path d="M86.3717 53.4369C92.0354 53.4369 95.0089 53.3944 95.0089 53.2952C95.0089 53.196 92.0354 53.1535 86.3717 53.1535C80.708 53.1535 77.7345 53.196 77.7345 53.2952C77.7345 53.3944 80.708 53.4369 86.3717 53.4369Z" fill="#49060D"/>
<path d="M20.9274 54.2449C23.5327 54.2732 27.738 54.2732 30.2726 54.2449C32.8212 54.2307 30.6973 54.2165 25.5575 54.2165C20.4177 54.2165 18.3363 54.2307 20.9274 54.2449Z" fill="#49060D"/>
<path d="M81.6708 54.2449C84.2478 54.2732 88.4956 54.2732 91.0867 54.2449C93.6637 54.2307 91.554 54.2165 86.3717 54.2165C81.1894 54.2165 79.0796 54.2307 81.6708 54.2449Z" fill="#49060D"/>
<path d="M25.5717 55.5631C33.6566 55.5631 34.1381 55.5489 34.0956 55.3079C34.0531 55.0812 33.7133 55.067 29.3805 55.067C19.7664 55.0528 16.9911 55.1237 16.9911 55.3505C16.9911 55.5347 18.0814 55.5631 25.5717 55.5631Z" fill="#49060D"/>
<path d="M95.0089 55.3788C95.0089 55.2229 93.9469 55.1662 89.4584 55.0953C82.3788 54.9678 77.9469 54.9678 77.8336 55.0953C77.777 55.1378 77.7345 55.2654 77.7345 55.3788C77.7345 55.5347 79.2637 55.5631 86.3717 55.5631C93.4938 55.5631 95.0089 55.5347 95.0089 55.3788Z" fill="#49060D"/>
<path d="M34.2513 61.2611C34.2372 59.4185 34.1947 57.5191 34.1381 57.0655C34.0531 56.286 33.8832 55.9883 33.6566 56.2151C33.6 56.2718 33.5575 58.1853 33.5575 60.4815V64.6346H33.9115H34.2655L34.2513 61.2611Z" fill="#49060D"/>
<path d="M78.4425 60.9068C78.4425 58.8657 78.4 56.9522 78.3575 56.6545C78.3009 56.371 78.2301 56.13 78.1734 56.1442C77.7487 56.2009 77.7345 56.3285 77.7345 60.4674V64.6346H78.0885H78.4425V60.9068Z" fill="#49060D"/>
<path d="M17.5575 64.6346V60.4532C17.5575 56.4844 17.5434 56.2718 17.3027 56.2718C17.0619 56.2718 17.0195 56.4419 16.9487 57.6467C16.892 58.4121 16.8496 60.2973 16.8496 61.8281V64.6346H17.2035H17.5575Z" fill="#49060D"/>
<path d="M20.6159 57.023C20.4602 56.7821 20.1912 56.5128 20.0071 56.4277C19.823 56.3427 19.6531 56.2718 19.6389 56.286C19.285 56.3994 18.9735 56.6687 18.7469 57.023C18.5062 57.4341 18.4779 57.8168 18.4354 60.8359L18.3929 64.2094H19.6814H20.9699L20.9274 60.8359C20.885 57.831 20.8566 57.4341 20.6159 57.023Z" fill="#49060D"/>
<path d="M22.3717 64.6346V60.4532C22.3717 56.371 22.3717 56.2718 22.0885 56.2718C21.8195 56.2718 21.8053 56.371 21.8053 58.2137C21.8053 59.2909 21.7628 61.1761 21.7062 62.3951L21.6212 64.6346H21.9894H22.3717Z" fill="#49060D"/>
<path d="M27.469 60.9351C27.469 57.2215 27.4265 57.0514 26.4071 56.5553C26.0814 56.3994 25.7274 56.2718 25.6142 56.286C25.0478 56.3143 24.4814 56.612 24.085 57.0514L23.646 57.5616V60.8784V64.2094H25.5575H27.469V60.9351Z" fill="#49060D"/>
<path d="M29.4088 62.4801C29.3522 61.3036 29.3097 59.4185 29.3097 58.2987C29.3097 56.371 29.2956 56.2718 29.0265 56.2718C28.7434 56.2718 28.7434 56.371 28.7434 60.453V60.4532V64.6346H29.1257H29.4938L29.4088 62.4801Z" fill="#49060D"/>
<path d="M32.708 60.9493C32.708 57.4341 32.623 56.9522 31.9858 56.4986C31.4478 56.13 30.9381 56.3143 30.4991 57.023C30.2584 57.4341 30.2301 57.8168 30.1876 60.8359L30.1451 64.2094H31.4195H32.708V60.9493Z" fill="#49060D"/>
<path d="M81.6991 60.8784C81.6991 57.3065 81.6425 56.9663 80.9628 56.4986C80.7929 56.371 80.5805 56.2718 80.4956 56.2718C80.2265 56.2718 79.7168 56.7112 79.5044 57.1222C79.3345 57.4483 79.292 58.1853 79.292 60.8784V64.2094H80.4956H81.6991V60.8784Z" fill="#49060D"/>
<path d="M83.2566 64.6346V60.4532C83.2566 56.4702 83.2425 56.2718 82.9876 56.2718C82.6336 56.2718 82.5487 57.2782 82.5487 61.4029V64.6346H82.9027H83.2566Z" fill="#49060D"/>
<path d="M88.0708 57.3065C87.9292 57.0514 87.6602 56.7537 87.4761 56.6403C86.6124 56.0875 85.3097 56.3568 84.7434 57.2073C84.4885 57.5758 84.4602 57.916 84.4177 60.9068L84.3752 64.2094H86.3575H88.354V60.9776C88.354 58.0436 88.3257 57.7176 88.0708 57.3065Z" fill="#49060D"/>
<path d="M90.1947 64.6346V60.4532V60.4529C90.1947 56.371 90.1947 56.2718 89.9115 56.2718C89.6425 56.2718 89.6283 56.371 89.6283 58.2137C89.6283 59.2909 89.5858 61.1761 89.5292 62.3951L89.4442 64.6346H89.8124H90.1947Z" fill="#49060D"/>
<path d="M93.3805 57.0939L92.9133 56.6828C92.6584 56.4561 92.4035 56.2718 92.3469 56.286C92.0212 56.3143 91.6248 56.5836 91.3841 56.938C91.1434 57.2923 91.1151 57.6609 91.0726 60.765L91.0301 64.2094H92.2478H93.4655L93.423 60.6516L93.3805 57.0939Z" fill="#49060D"/>
<path d="M95.0796 63.3873C95.0796 62.7494 95.0513 60.8784 95.0372 59.2484C95.0088 56.371 94.9947 56.2718 94.7257 56.2718C94.4566 56.2718 94.4425 56.371 94.4425 59.9146C94.4283 61.9273 94.4 63.8125 94.3575 64.1102C94.2726 64.6346 94.2867 64.6488 94.6832 64.6062L95.0796 64.5637V63.3873Z" fill="#49060D"/>
<path d="M37.6637 58.9649C39.8301 58.9649 40.2124 58.9365 40.2124 58.7523C40.2124 58.568 39.8301 58.5397 37.6637 58.5397C35.4973 58.5397 35.115 58.568 35.115 58.7523C35.115 58.9365 35.4973 58.9649 37.6637 58.9649Z" fill="#49060D"/>
<path d="M56 58.9649C69.1823 58.9649 70.9381 58.9365 70.9381 58.7523C70.9381 58.568 69.1823 58.5397 56 58.5397C42.8177 58.5397 41.0619 58.568 41.0619 58.7523C41.0619 58.9365 42.8177 58.9649 56 58.9649Z" fill="#49060D"/>
<path d="M74.3363 58.9649C76.5027 58.9649 76.885 58.9365 76.885 58.7523C76.885 58.568 76.5027 58.5397 74.3363 58.5397C72.1699 58.5397 71.7876 58.568 71.7876 58.7523C71.7876 58.9365 72.1699 58.9649 74.3363 58.9649Z" fill="#49060D"/>
<path d="M40.4956 60.8075V60.3115V59.8153H37.8053H35.115V60.3115V60.8075H37.8053H40.4956Z" fill="#49060D"/>
<path d="M70.6549 60.8075V60.3115V59.8153H56H41.3451V60.3115V60.8075H56H70.6549Z" fill="#49060D"/>
<path d="M76.885 60.8075V60.3115V59.8153H74.1947H71.5044V60.3115V60.8075H74.1947H76.885Z" fill="#49060D"/>
<path d="M40.9204 67.8805V64.7763V61.658H38.0177H35.115V63.0754V64.4929H35.5398H35.9646V65.4851C35.9646 66.4489 35.9504 66.4772 35.6106 66.4772H35.2566V67.9797C35.2566 69.3404 35.285 69.468 35.5115 69.3971C36.3186 69.1562 39.8159 68.1782 40.3257 68.0364L40.9204 67.8805Z" fill="#49060D"/>
<path d="M69.9894 67.5687C70.2159 67.6395 70.2301 67.4269 70.2301 64.6488V61.658H56H41.7699V64.6488C41.7699 67.4269 41.7841 67.6254 42.0248 67.5545C42.1522 67.512 45.3522 66.6048 49.1186 65.5418L55.9717 63.6141L62.8531 65.5559C66.6336 66.6332 69.8478 67.5403 69.9894 67.5687Z" fill="#49060D"/>
<path d="M76.885 64.4929V63.0754V61.658H73.9823H71.0796V64.7622C71.0796 67.6112 71.108 67.8805 71.3345 67.9514C72.6655 68.3482 76.6018 69.4538 76.6584 69.4538C76.7009 69.4538 76.7434 68.7877 76.7434 67.9655V66.4772H76.3894C76.0496 66.4772 76.0354 66.4489 76.0354 65.4851V64.4929H76.4602H76.885Z" fill="#49060D"/>
<path d="M15.5186 64.4929C15.7451 64.4929 15.8584 64.422 15.8301 64.3086C15.7734 64.181 14.3575 64.1243 9.51504 64.096L3.25664 64.0676V67.7529V71.4382H8.12743H13.0124L13.0549 71.1122C13.0973 70.8287 13.1823 70.8004 14.131 70.7579L15.1504 70.7153V70.3043C15.1504 69.9499 15.2071 69.8791 15.5044 69.8791H15.8584V68.1782V66.4772H15.5044C15.1646 66.4772 15.1504 66.4489 15.1504 65.4851C15.1504 64.507 15.1646 64.4929 15.5186 64.4929Z" fill="#49060D"/>
<path d="M108.743 71.4382L108.715 67.7813L108.673 64.1385L102.414 64.096C96.892 64.0676 96.1416 64.096 96.1416 64.2802C96.1416 64.4078 96.269 64.4929 96.4956 64.4929C96.8354 64.4929 96.8495 64.5212 96.8495 65.4851C96.8495 66.4489 96.8354 66.4772 96.4956 66.4772H96.1416V68.1782V69.8791H96.4956C96.7929 69.8791 96.8495 69.9499 96.8495 70.3043V70.7295H97.8407C98.8035 70.7295 98.8319 70.7437 98.8319 71.0839V71.4382H103.788H108.743Z" fill="#49060D"/>
<path d="M25.6283 65.6268C31.8584 65.6268 35.115 65.5843 35.115 65.4851C35.115 65.3858 31.8584 65.3433 25.6283 65.3433C19.3982 65.3433 16.1416 65.3858 16.1416 65.4851C16.1416 65.5843 19.3982 65.6268 25.6283 65.6268Z" fill="#49060D"/>
<path d="M78.5841 71.7076C77.5363 71.3957 72.0708 69.8507 66.4496 68.249C60.8283 66.6473 56.085 65.3433 55.9009 65.3575C55.6319 65.3575 32.2124 71.9769 31.6743 72.2036C31.5752 72.232 35.1717 72.2745 39.6602 72.2745L47.8159 72.2887L48.1982 71.58C48.8354 70.4035 50.9593 68.3199 51.5257 68.3199C51.6389 68.3199 51.6814 68.9436 51.6814 70.3043C51.6814 71.9769 51.7097 72.2887 51.8938 72.2887C52.0779 72.2887 52.1062 71.9627 52.1062 70.1767C52.1062 68.6601 52.1628 68.0364 52.2903 67.9372C52.5876 67.6962 53.8336 67.3419 54.9239 67.186C56.1699 67.0159 57.8266 67.186 58.9876 67.6254L59.7522 67.9089V70.1059C59.7522 72.1895 59.7664 72.2887 60.0354 72.2887C60.3044 72.2887 60.3186 72.1895 60.3186 70.3043C60.3186 69.2129 60.3752 68.3199 60.4319 68.3199C60.5027 68.3199 60.8425 68.5183 61.2106 68.7593C62.0602 69.3121 63.2071 70.5736 63.7451 71.5375L64.1699 72.2887L72.3257 72.2745H80.4956L78.5841 71.7076Z" fill="#49060D"/>
<path d="M86.3717 65.6268C92.6018 65.6268 95.8584 65.5843 95.8584 65.4851C95.8584 65.3858 92.6018 65.3433 86.3717 65.3433C80.1416 65.3433 76.885 65.3858 76.885 65.4851C76.885 65.5843 80.1416 65.6268 86.3717 65.6268Z" fill="#49060D"/>
<path d="M34.4071 69.7232V68.0364V66.3355H25.5575H16.708V68.1782V70.0208H25.0336C30.3575 70.0208 33.5292 69.9641 33.8832 69.8649L34.4071 69.7232Z" fill="#49060D"/>
<path d="M95.3062 70.0208L95.2637 68.2065L95.2212 66.4064L86.4142 66.3639L77.5929 66.3355V68.0222V69.7232L78.131 69.8649C78.4708 69.9641 81.6425 70.0208 86.9805 70.0208H95.3062Z" fill="#49060D"/>
<path d="M23.0513 70.9847C27.6389 70.9988 30.0177 70.9705 30.0177 70.8713C30.0177 70.7862 29.4655 70.7437 28.5734 70.7579C27.8157 70.7845 25.0109 70.8236 22.1513 70.8635L21.5929 70.8713L16.0708 70.9421L23.0513 70.9847Z" fill="#49060D"/>
<path d="M88.8779 70.9847C92.7575 70.9705 95.6743 70.9421 95.3628 70.928C94.046 70.8287 81.954 70.8146 81.8832 70.8996C81.8549 70.9705 84.9982 70.9988 88.8779 70.9847Z" fill="#49060D"/>
<path d="M17.246 71.8209C19.0442 71.8493 22.0177 71.8493 23.8301 71.8209C25.6283 71.8068 24.1558 71.7926 20.531 71.7926C16.9062 71.7926 15.4336 71.8068 17.246 71.8209Z" fill="#49060D"/>
<path d="M88.1133 71.8209C89.9681 71.8493 92.9699 71.8493 94.7681 71.8209C96.5805 71.8068 95.0655 71.7926 91.3982 71.7926C87.7451 71.7926 86.2584 71.8068 88.1133 71.8209Z" fill="#49060D"/>
<path d="M5.98938 73.0966C7.22124 73.125 9.20354 73.125 10.3788 73.0966C11.5681 73.0825 10.5628 73.0541 8.14159 73.0541C5.73451 73.0541 4.75752 73.0825 5.98938 73.0966Z" fill="#49060D"/>
<path d="M17.1611 73.0966C19.3274 73.125 22.8673 73.125 25.0195 73.0966C27.1858 73.0825 25.4159 73.0683 21.0973 73.0683C16.7788 73.0683 15.0088 73.0825 17.1611 73.0966Z" fill="#49060D"/>
<path d="M42.9451 73.0966C50.1805 73.125 61.9611 73.125 69.1398 73.0966C76.3186 73.0825 70.4142 73.0683 56 73.0683C41.6 73.0683 35.7239 73.0825 42.9451 73.0966Z" fill="#49060D"/>
<path d="M86.8389 73.0966C88.9911 73.125 92.531 73.125 94.6973 73.0966C96.8496 73.0825 95.0797 73.0683 90.7611 73.0683C86.4425 73.0683 84.6726 73.0825 86.8389 73.0966Z" fill="#49060D"/>
<path d="M101.635 73.0966C102.811 73.125 104.765 73.125 105.954 73.0966C107.129 73.0825 106.166 73.0541 103.788 73.0541C101.409 73.0541 100.446 73.0825 101.635 73.0966Z" fill="#49060D"/>
<path d="M15.1504 76.3992V75.4779V74.5566L13.2106 74.5849C12.1345 74.5991 10.1947 74.6416 8.89203 74.6558L6.51327 74.6983V75.5488V76.3992H10.8319H15.1504Z" fill="#49060D"/>
<path d="M31.646 76.3992L31.6035 75.4779L31.5469 74.5566H23.8726C19.6389 74.5566 16.1416 74.5991 16.0991 74.6558C16.0425 74.6983 16 75.1235 16 75.5771V76.3992H23.8301H31.646Z" fill="#49060D"/>
<path d="M79.4478 76.3992L79.4053 75.5062L79.3628 74.6274L56.0566 74.5849C43.2425 74.5707 32.708 74.5991 32.6655 74.6558C32.6089 74.6983 32.5664 75.1235 32.5664 75.5771V76.3992H56H79.4478Z" fill="#49060D"/>
<path d="M95.8726 76.3992L95.8301 75.5062L95.7876 74.6274L88.1274 74.5849C83.9221 74.5707 80.4248 74.5991 80.3823 74.6558C80.3257 74.6983 80.2832 75.1235 80.2832 75.5771V76.3992H88.0708H95.8726Z" fill="#49060D"/>
<path d="M105.345 74.6983L103.476 74.6841C102.463 74.6841 100.647 74.6433 99.3887 74.615L99.3133 74.6133C98.0673 74.5849 96.9911 74.5991 96.9487 74.6558C96.892 74.6983 96.8495 75.1235 96.8495 75.5771V76.3992H101.097H105.345V75.5488V74.6983Z" fill="#49060D"/>
<path d="M15.0088 77.9584V77.5332V77.1079H10.6903H6.37168V77.5332V77.9584H10.6903H15.0088Z" fill="#49060D"/>
<path d="M31.4336 77.9584V77.5332V77.1079H23.646H15.8584V77.5332V77.9584H23.646H31.4336Z" fill="#49060D"/>
<path d="M79.5752 77.9584V77.5332V77.1079H56H32.4248V77.5332V77.9584H56H79.5752Z" fill="#49060D"/>
<path d="M96.1416 77.9584V77.5332V77.1079H88.3823C84.1062 77.1079 80.5664 77.1505 80.5239 77.2072C80.4673 77.2497 80.4248 77.4481 80.4248 77.6324V77.9584H88.2832H96.1416Z" fill="#49060D"/>
<path d="M105.628 77.9584V77.5332V77.1079H101.31H96.9911V77.5332V77.9584H101.31H105.628Z" fill="#49060D"/>
<path d="M7.57522 79.0923C8.93451 79.0923 9.20354 79.0498 9.20354 78.8797C9.20354 78.7096 8.93451 78.6671 7.57522 78.6671C6.21593 78.6671 5.9469 78.7096 5.9469 78.8797C5.9469 79.0498 6.21593 79.0923 7.57522 79.0923Z" fill="#49060D"/>
<path d="M12.8991 79.0923C14.1734 79.0923 14.4425 79.0498 14.4425 78.8797C14.4425 78.7096 14.1734 78.6671 12.9133 78.6671C12.0637 78.6671 11.3274 78.7096 11.285 78.7522C11.0442 79.0073 11.4832 79.0923 12.8991 79.0923Z" fill="#49060D"/>
<path d="M20.3894 103.047V90.857V78.6671H18.2796C17.1044 78.6671 16.1274 78.7096 16.085 78.7805C16.0566 78.8372 16.0566 84.3226 16.0991 90.9704L16.1841 103.047H18.2938H20.3894Z" fill="#49060D"/>
<path d="M29.8761 84.0533V81.3602V78.6671H25.7274C23.4336 78.6671 21.5221 78.7096 21.4796 78.7663C21.423 78.8088 21.3805 80.0278 21.3805 81.4594V84.0533H25.6283H29.8761Z" fill="#49060D"/>
<path d="M31.4478 79.5601C31.2779 79.3616 31.1504 79.0782 31.1504 78.9364C31.1504 78.6671 30.9947 78.5821 30.8106 78.7663C30.754 78.823 30.7257 84.3085 30.7398 90.9562C30.754 101.218 30.7823 103.047 30.9522 103.047C31.0938 103.047 31.1504 102.877 31.1504 102.48C31.1504 102.125 31.2212 101.87 31.3345 101.828C31.4903 101.771 31.5469 99.7726 31.6319 90.8428C31.731 79.9711 31.731 79.9286 31.4478 79.5601Z" fill="#49060D"/>
<path d="M33.7699 79.0923C35.1292 79.0923 35.3982 79.0498 35.3982 78.8797C35.3982 78.7096 35.1292 78.6671 33.7699 78.6671C32.4106 78.6671 32.1416 78.7096 32.1416 78.8797C32.1416 79.0498 32.4106 79.0923 33.7699 79.0923Z" fill="#49060D"/>
<path d="M42.6903 79.0923C44.0496 79.0923 44.3186 79.0498 44.3186 78.8797C44.3186 78.7096 44.0496 78.6671 42.6903 78.6671C41.331 78.6671 41.0619 78.7096 41.0619 78.8797C41.0619 79.0498 41.331 79.0923 42.6903 79.0923Z" fill="#49060D"/>
<path d="M51.6248 79.0923C52.9699 79.0923 53.2389 79.0498 53.2389 78.8797C53.2389 78.7096 52.9699 78.6671 51.6389 78.6671C50.7469 78.6671 49.9823 78.7096 49.9398 78.7522C49.6991 79.0073 50.1381 79.0923 51.6248 79.0923Z" fill="#49060D"/>
<path d="M60.4602 79.0923C61.8761 79.0923 62.1593 79.0498 62.1593 78.8797C62.1593 78.7096 61.8903 78.6671 60.5593 78.6671C59.6673 78.6671 58.9027 78.7096 58.8602 78.7663C58.5912 79.0215 58.9027 79.0923 60.4602 79.0923Z" fill="#49060D"/>
<path d="M69.4655 79.0923C70.8106 79.0923 71.0796 79.0498 71.0796 78.8797C71.0796 78.7096 70.8106 78.6671 69.4796 78.6671C68.5876 78.6671 67.823 78.7096 67.7805 78.7522C67.5398 79.0073 67.9788 79.0923 69.4655 79.0923Z" fill="#49060D"/>
<path d="M78.2726 79.064C79.2779 79.0356 79.915 78.9648 79.9009 78.8797C79.8726 78.7947 79.1646 78.7238 78.2301 78.6955C76.8283 78.6671 76.6018 78.6955 76.6018 78.8797C76.6018 79.064 76.8283 79.0923 78.2726 79.064Z" fill="#49060D"/>
<path d="M80.9911 103.047C81.0903 103.047 81.1327 98.8938 81.1327 90.857C81.1327 83.8124 81.0761 78.6671 81.0053 78.6671C80.9345 78.6671 80.8354 78.8372 80.7788 79.0498C80.7363 79.2766 80.5805 79.5601 80.4673 79.6877C80.269 79.9144 80.2549 81.0342 80.3398 90.8144C80.4248 99.9852 80.4814 101.714 80.6513 101.814C80.7646 101.885 80.8496 102.154 80.8496 102.48C80.8496 102.792 80.9203 103.047 80.9911 103.047Z" fill="#49060D"/>
<path d="M90.6195 84.0533V81.3602V78.6671H86.3717H82.1239V81.3602V84.0533H86.3717H90.6195Z" fill="#49060D"/>
<path d="M95.8584 103.047L95.8301 90.8853L95.7876 78.738L93.7204 78.6955C92.5876 78.6813 91.6248 78.7096 91.554 78.7663C91.469 78.8655 91.4832 97.5472 91.5823 101.303L91.6248 103.047H93.7487H95.8584Z" fill="#49060D"/>
<path d="M99.1292 79.0923C100.404 79.0923 100.673 79.0498 100.673 78.8797C100.673 78.7096 100.404 78.6671 99.1434 78.6671C98.2938 78.6671 97.5575 78.7096 97.515 78.7522C97.2743 79.0073 97.7133 79.0923 99.1292 79.0923Z" fill="#49060D"/>
<path d="M104.368 79.0923C105.642 79.0923 105.911 79.0498 105.911 78.8797C105.911 78.7096 105.642 78.6671 104.382 78.6671C103.533 78.6671 102.796 78.7096 102.754 78.7522C102.513 79.0073 102.952 79.0923 104.368 79.0923Z" fill="#49060D"/>
<path d="M8.8354 93.8619C8.79292 89.4395 8.73628 84.4644 8.6938 82.806L8.60885 79.801H7.56106H6.51327V84.025C6.51327 86.3495 6.4708 91.3247 6.41416 95.0809L6.3292 101.913H7.60354H8.89203L8.8354 93.8619Z" fill="#49060D"/>
<path d="M14.0743 92.728C14.0319 87.6819 13.9752 82.7068 13.9327 81.672L13.8478 79.801H12.8H11.7522V84.6628C11.7522 87.3417 11.7097 92.3169 11.6531 95.7187L11.5681 101.913H12.8566H14.131L14.0743 92.728Z" fill="#49060D"/>
<path d="M34.8743 101.941C35.0018 101.885 35.0018 92.0334 34.8743 85.003L34.7894 79.801H33.7699H32.7363L32.6513 84.9321C32.6088 87.767 32.5522 92.7421 32.5239 95.988L32.4956 101.899L33.6283 101.941C34.2513 101.97 34.8035 101.97 34.8743 101.941Z" fill="#49060D"/>
<path d="M43.8938 98.4827C43.8938 96.5125 43.8513 91.4948 43.7947 87.3417L43.7097 79.801H42.6903H41.6708L41.5858 82.5225C41.5292 84.025 41.4726 89.0143 41.4584 93.6209L41.4159 101.984L42.6619 102.026L43.8938 102.069V98.4827Z" fill="#49060D"/>
<path d="M52.885 100.992C52.885 100.439 52.8283 95.4494 52.7575 89.8931L52.6301 79.801H51.5398H50.4496L50.3646 90.8144C50.308 96.881 50.3221 101.885 50.3929 101.955C50.4496 102.012 51.0443 102.055 51.6956 102.026L52.885 101.984V100.992Z" fill="#49060D"/>
<path d="M61.7062 98.2984C61.7345 96.2715 61.7062 91.2822 61.6496 87.2L61.5646 79.801H60.531H59.4973L59.4124 80.3255C59.3699 80.6232 59.3274 85.6125 59.2991 91.4239L59.2566 101.984H60.4602H61.6637L61.7062 98.2984Z" fill="#49060D"/>
<path d="M70.6124 93.8477C70.5557 89.3545 70.5133 84.3652 70.5133 82.7351V79.801H69.4655H68.4177L68.3327 80.8216C68.2903 81.3886 68.2195 86.4062 68.1911 91.9626L68.1204 102.069L69.4089 102.04L70.6973 102.012L70.6124 93.8477Z" fill="#49060D"/>
<path d="M79.4903 91.0271C79.4478 85.0455 79.3912 80.0704 79.3487 79.9711C79.3204 79.8577 78.9664 79.801 78.2301 79.801H77.1681V84.025C77.1681 86.3495 77.1257 91.3247 77.069 95.0809L76.9841 101.913H78.2867H79.5752L79.4903 91.0271Z" fill="#49060D"/>
<path d="M100.319 93.2949C100.276 88.5607 100.205 83.5856 100.163 82.239L100.078 79.801H99.0301H97.9823V84.2376C97.9823 86.6897 97.9398 91.6649 97.8832 95.2935L97.7982 101.913H99.0867H100.389L100.319 93.2949Z" fill="#49060D"/>
<path d="M105.558 92.8697C105.515 87.9087 105.444 82.9336 105.402 81.8138L105.317 79.801H104.34C103.674 79.801 103.335 79.8577 103.306 79.9711C103.264 80.0704 103.207 85.0455 103.165 91.0271L103.08 101.913H104.354H105.628L105.558 92.8697Z" fill="#49060D"/>
<path d="M23.4761 85.1447C24.6513 85.1731 26.6053 85.1731 27.7947 85.1447C28.9699 85.1306 28.0071 85.1022 25.6283 85.1022C23.2496 85.1022 22.2867 85.1306 23.4761 85.1447Z" fill="#49060D"/>
<path d="M36.9274 85.1447C37.6354 85.1731 38.8248 85.1731 39.5469 85.1447C40.2549 85.1306 39.6743 85.1022 38.2301 85.1022C36.7858 85.1022 36.2053 85.1306 36.9274 85.1447Z" fill="#49060D"/>
<path d="M45.8478 85.1447C46.5557 85.1731 47.7451 85.1731 48.4673 85.1447C49.1752 85.1306 48.5947 85.1022 47.1504 85.1022C45.7062 85.1022 45.1257 85.1306 45.8478 85.1447Z" fill="#49060D"/>
<path d="M54.7681 85.1447C55.4761 85.1731 56.6655 85.1731 57.3876 85.1447C58.0956 85.1306 57.515 85.1022 56.0708 85.1022C54.6266 85.1022 54.046 85.1306 54.7681 85.1447Z" fill="#49060D"/>
<path d="M63.6885 85.1447C64.3965 85.1731 65.5858 85.1731 66.308 85.1447C67.0159 85.1306 66.4354 85.1022 64.9911 85.1022C63.5469 85.1022 62.9664 85.1306 63.6885 85.1447Z" fill="#49060D"/>
<path d="M72.5381 85.1447C73.3027 85.1731 74.5062 85.1731 75.2283 85.1447C75.9504 85.1306 75.3274 85.1022 73.8407 85.1022C72.3681 85.1022 71.7735 85.1306 72.5381 85.1447Z" fill="#49060D"/>
<path d="M84.2195 85.1447C85.3947 85.1731 87.3487 85.1731 88.5381 85.1447C89.7133 85.1306 88.7504 85.1022 86.3717 85.1022C83.9929 85.1022 83.0301 85.1306 84.2195 85.1447Z" fill="#49060D"/>
<path d="M29.8761 86.6047V86.2503V85.896H25.6283H21.3805V86.2503V86.6047H25.6283H29.8761Z" fill="#49060D"/>
<path d="M40.6372 86.6047V86.2503V85.896H38.2301H35.823V86.2503V86.6047H38.2301H40.6372Z" fill="#49060D"/>
<path d="M49.5575 86.6047V86.2503V85.896H47.0796H44.6018V86.2503V86.6047H47.0796H49.5575Z" fill="#49060D"/>
<path d="M58.4779 86.6047V86.2503V85.896H56.0708H53.6637V86.2503V86.6047H56.0708H58.4779Z" fill="#49060D"/>
<path d="M67.3982 86.6047V86.2503V85.896H65.0053C63.6743 85.896 62.5699 85.9527 62.5274 86.0235C62.4708 86.0944 62.485 86.2503 62.5274 86.3779C62.5982 86.5763 62.9522 86.6047 65.0053 86.6047H67.3982Z" fill="#49060D"/>
<path d="M76.3186 86.6047V86.2503V85.896H73.8407H71.3628V86.2503V86.6047H73.8407H76.3186Z" fill="#49060D"/>
<path d="M90.6195 86.6047V86.2503V85.896H86.3717H82.1239V86.2503V86.6047H86.3717H90.6195Z" fill="#49060D"/>
<path d="M29.8761 103.047V95.251V87.4551H25.6283H21.3805V95.251V103.047H21.7345H22.0885V101.629C22.0885 100.779 22.0319 100.212 21.9469 100.212C21.8761 100.212 21.8053 99.886 21.8053 99.5033C21.8053 98.8371 21.8336 98.7945 22.1593 98.7945H22.5133V93.4792V88.1639H25.5575H28.6018V93.4792V98.7945H29.0265C29.4372 98.7945 29.4513 98.8229 29.4513 99.4182C29.4513 99.7726 29.3947 100.099 29.3097 100.141C29.2248 100.184 29.1681 100.85 29.1681 101.644V101.644C29.1681 103.047 29.1681 103.047 29.5221 103.047H29.8761Z" fill="#49060D"/>
<path d="M90.6195 103.047V95.251V87.4551H86.3717H82.1239V95.251V103.047H82.4779H82.8319V101.629C82.8319 100.779 82.7752 100.212 82.6903 100.212C82.6195 100.212 82.5487 99.886 82.5487 99.5033C82.5487 98.8371 82.577 98.7945 82.9027 98.7945H83.2566L83.285 93.5075L83.3274 88.2347H86.3717H89.4159L89.4584 93.5075L89.4867 98.7945H89.8407C90.1664 98.7945 90.1947 98.8371 90.1947 99.5033C90.1947 99.886 90.138 100.212 90.0531 100.212C89.9681 100.212 89.9115 100.779 89.9115 101.629V103.047H90.2655H90.6195Z" fill="#49060D"/>
<path d="M58.2655 101.97C58.4496 101.899 58.4779 101.034 58.4779 95.3785V88.8726H56.0708H53.6637V95.3927C53.6637 99.645 53.7062 101.913 53.8053 101.913C53.8903 101.913 53.9469 102.168 53.9469 102.48V103.047H56H58.0531V102.551C58.0531 102.239 58.1381 102.012 58.2655 101.97Z" fill="#49060D"/>
<path d="M28.177 102.196V101.559V100.921H25.6283H23.0796V101.559V102.196H25.6283H28.177Z" fill="#49060D"/>
<path d="M88.9203 102.196V101.559V100.921H86.3717H83.823V101.559V102.196H86.3717H88.9203Z" fill="#49060D"/>
<path d="M7.57522 103.047C8.56637 103.047 9.20354 102.99 9.20354 102.905C9.20354 102.82 8.56637 102.763 7.57522 102.763C6.58407 102.763 5.9469 102.82 5.9469 102.905C5.9469 102.99 6.58407 103.047 7.57522 103.047Z" fill="#49060D"/>
<path d="M12.8142 103.047C13.8053 103.047 14.4425 102.99 14.4425 102.905C14.4425 102.82 13.8053 102.763 12.8142 102.763C11.823 102.763 11.1858 102.82 11.1858 102.905C11.1858 102.99 11.823 103.047 12.8142 103.047Z" fill="#49060D"/>
<path d="M33.7699 103.047C34.7611 103.047 35.3982 102.99 35.3982 102.905C35.3982 102.82 34.7611 102.763 33.7699 102.763C32.7788 102.763 32.1416 102.82 32.1416 102.905C32.1416 102.99 32.7788 103.047 33.7699 103.047Z" fill="#49060D"/>
<path d="M42.6903 103.047C43.6814 103.047 44.3186 102.99 44.3186 102.905C44.3186 102.82 43.6814 102.763 42.6903 102.763C41.6991 102.763 41.0619 102.82 41.0619 102.905C41.0619 102.99 41.6991 103.047 42.6903 103.047Z" fill="#49060D"/>
<path d="M51.6106 103.047C52.6018 103.047 53.2389 102.99 53.2389 102.905C53.2389 102.82 52.6018 102.763 51.6106 102.763C50.6195 102.763 49.9823 102.82 49.9823 102.905C49.9823 102.99 50.6195 103.047 51.6106 103.047Z" fill="#49060D"/>
<path d="M60.4602 103.047C61.4938 103.047 62.1593 102.99 62.1593 102.905C62.1593 102.82 61.4938 102.763 60.4602 102.763C59.4265 102.763 58.7611 102.82 58.7611 102.905C58.7611 102.99 59.4265 103.047 60.4602 103.047Z" fill="#49060D"/>
<path d="M69.4513 103.047C70.4425 103.047 71.0796 102.99 71.0796 102.905C71.0796 102.82 70.4425 102.763 69.4513 102.763C68.4602 102.763 67.823 102.82 67.823 102.905C67.823 102.99 68.4602 103.047 69.4513 103.047Z" fill="#49060D"/>
<path d="M78.2301 103.047C79.2212 103.047 79.8584 102.99 79.8584 102.905C79.8584 102.82 79.2212 102.763 78.2301 102.763C77.2389 102.763 76.6018 102.82 76.6018 102.905C76.6018 102.99 77.2389 103.047 78.2301 103.047Z" fill="#49060D"/>
<path d="M99.0443 103.047C100.035 103.047 100.673 102.99 100.673 102.905C100.673 102.82 100.035 102.763 99.0443 102.763C98.0531 102.763 97.4159 102.82 97.4159 102.905C97.4159 102.99 98.0531 103.047 99.0443 103.047Z" fill="#49060D"/>
<path d="M104.283 103.047C105.274 103.047 105.911 102.99 105.911 102.905C105.911 102.82 105.274 102.763 104.283 102.763C103.292 102.763 102.655 102.82 102.655 102.905C102.655 102.99 103.292 103.047 104.283 103.047Z" fill="#49060D"/>
<path d="M14.7257 106.165V105.031V103.897H9.09026C5.98938 103.897 3.39823 103.94 3.35575 103.996C3.29911 104.039 3.25664 104.549 3.25664 105.13V106.165H8.99115H14.7257Z" fill="#49060D"/>
<path d="M37.3097 104.464C37.7062 104.464 37.8053 104.408 37.8053 104.181C37.8053 103.897 37.7062 103.897 26.7612 103.897H26.7611H15.7168V105.031V106.165H25.3451H34.9735V105.811C34.9735 105.513 35.0442 105.456 35.3841 105.456C35.6673 105.456 35.8088 105.371 35.8655 105.173C35.9221 104.96 36.0637 104.889 36.3752 104.889C36.6726 104.889 36.8142 104.819 36.8142 104.677C36.8142 104.535 36.9699 104.464 37.3097 104.464Z" fill="#49060D"/>
<path d="M96.2973 106.165L96.2549 105.06L96.2124 103.968L85.2106 103.926C74.2655 103.897 74.1947 103.897 74.1947 104.181C74.1947 104.408 74.2938 104.464 74.6903 104.464C75.0301 104.464 75.1858 104.535 75.1858 104.677C75.1858 104.819 75.3274 104.889 75.6106 104.889C75.9363 104.889 76.0354 104.946 76.0354 105.173C76.0354 105.4 76.1345 105.456 76.531 105.456C76.9699 105.456 77.0266 105.499 77.0266 105.811V106.165H86.6549H96.2973Z" fill="#49060D"/>
<path d="M108.602 106.165V105.031V103.897H102.938H97.2743V105.031V106.165H102.938H108.602Z" fill="#49060D"/>
<path d="M73.2602 104.322C72.9911 104.322 72.7788 104.252 72.7788 104.181C72.7788 104.082 67.0867 104.039 56 104.039C44.9133 104.039 39.2212 104.082 39.2212 104.181C39.2212 104.252 39.0372 104.322 38.8106 104.322C38.5274 104.322 38.3858 104.408 38.3292 104.606C38.2726 104.819 38.131 104.889 37.8195 104.889C37.5221 104.889 37.3805 104.96 37.3805 105.102C37.3805 105.244 37.2248 105.315 36.885 105.315C36.4885 105.315 36.3894 105.371 36.3894 105.598C36.3894 105.825 36.2903 105.882 35.8938 105.882C35.6248 105.882 35.3982 105.938 35.3982 106.023C35.3982 106.123 42.3646 106.165 56 106.165C69.6354 106.165 76.6018 106.123 76.6018 106.023C76.6018 105.938 76.4177 105.882 76.177 105.882C75.8513 105.882 75.7522 105.825 75.7522 105.598C75.7522 105.371 75.6531 105.315 75.2566 105.315C74.9168 105.315 74.7611 105.244 74.7611 105.102C74.7611 104.96 74.6195 104.889 74.3221 104.889C74.0106 104.889 73.869 104.819 73.8124 104.606C73.7558 104.393 73.6142 104.322 73.2602 104.322Z" fill="#49060D"/>
<path d="M112 109V108.079V107.157H56H0V108.079V109H56H112Z" fill="#49060D"/>
<path d="M55.4199 12.6722C55.1791 12.7714 54.8535 13.0407 54.6836 13.2534C54.4004 13.6219 54.3721 13.8062 54.3721 15.6913V17.7324L56.1137 17.6899L57.8411 17.6474L57.8836 15.9323C57.9261 14.0188 57.7561 13.2817 57.2039 12.8848C56.7084 12.5305 55.9438 12.4313 55.4199 12.6722Z" fill="#49060D"/>
<path d="M17.9399 66.5763C17.8833 66.6188 17.8408 67.3842 17.8408 68.2772V69.8789H19.6815H21.5222V68.4048C21.5222 67.5969 21.4798 66.8314 21.4373 66.7039C21.3665 66.5196 21.0691 66.4771 19.6957 66.4771C18.7753 66.4771 17.9824 66.5196 17.9399 66.5763ZM20.5311 68.2489V69.0285H19.6815H18.832V68.2489V67.4693H19.6815H20.5311V68.2489Z" fill="#49060D"/>
<path d="M23.1792 66.5763C23.1226 66.6188 23.0801 67.3842 23.0801 68.2772V69.8789H25.558H28.0358V68.178V66.4771H25.6571C24.3403 66.4771 23.2217 66.5196 23.1792 66.5763ZM27.0588 67.526C27.0872 67.5543 27.0872 67.9087 27.073 68.3056L27.0164 69.0285H25.5438H24.0712V68.2489V67.4693H25.5296C26.3367 67.4693 27.0305 67.4976 27.0588 67.526Z" fill="#49060D"/>
<path d="M29.8335 66.5621C29.7769 66.6188 29.7344 67.3842 29.7344 68.2772V69.8789H31.5043H33.2884L33.2459 68.2063L33.2034 66.548L31.5609 66.5054C30.6689 66.4913 29.8901 66.5196 29.8335 66.5621ZM32.283 68.2489V69.0426L31.476 69.0001L30.6547 68.9576L30.6123 68.4048C30.5415 67.5543 30.6264 67.4693 31.5043 67.4693H32.283V68.2489Z" fill="#49060D"/>
<path d="M78.8247 66.5621C78.7681 66.6188 78.7256 67.3842 78.7256 68.2772V69.8789H80.4955H82.2796L82.2371 68.2063L82.1946 66.548L80.5521 66.5054C79.6601 66.4913 78.8813 66.5196 78.8247 66.5621ZM81.3451 68.2489V68.9576L80.538 69.0001L79.7167 69.0426V68.2489V67.4551L80.538 67.4976L81.3451 67.5402V68.2489Z" fill="#49060D"/>
<path d="M83.9648 68.178V69.8789H86.4427H88.9348L88.8923 68.2063L88.8498 66.548L86.4144 66.5054L83.9648 66.4771V68.178ZM87.9294 68.2489V69.0285H86.3719H84.8144V68.2489V67.4693H86.3719H87.9294V68.2489Z" fill="#49060D"/>
<path d="M90.5767 66.5763C90.52 66.6188 90.4775 67.3842 90.4775 68.2772V69.8789H92.2475H94.0174V68.178V66.4771H92.3466C91.4262 66.4771 90.6191 66.5196 90.5767 66.5763ZM93.1678 68.2489V69.0285H92.3182H91.4687V68.2489V67.4693H92.3182H93.1678V68.2489Z" fill="#49060D"/>
<path d="M23.3633 81.4309V83.6279H25.6288H27.8943V81.4309V79.2339H25.6288H23.3633V81.4309ZM27.0164 81.3884L26.9739 82.7066H25.6288H24.2836L24.2412 81.5868C24.2128 80.9632 24.227 80.382 24.2695 80.2686C24.3261 80.1269 24.6943 80.0844 25.6996 80.0844H27.0589L27.0164 81.3884Z" fill="#49060D"/>
<path d="M84.1064 81.4309V83.6279H86.3719H88.6374V81.4309V79.2339H86.3719H84.1064V81.4309ZM87.6463 81.4309V82.7775H86.3011H84.956V81.4309V80.0844H86.3011H87.6463V81.4309Z" fill="#49060D"/>
</svg>
