<svg id="Слой_1" data-name="Слой 1" xmlns="http://www.w3.org/2000/svg" viewBox="0 0 50 50"><defs><style>.cls-1{fill:#5d001a;}.cls-2{fill:none;stroke:#5d001a;stroke-width:0.25px;}</style></defs><path class="cls-1" d="M39.86,33.15a1.85,1.85,0,1,1,0,3.7H10.12a1.85,1.85,0,1,1,0-3.7Z"/><path class="cls-1" d="M39.86,23.15a1.85,1.85,0,1,1,0,3.7H10.12a1.85,1.85,0,1,1,0-3.7Z"/><path class="cls-1" d="M39.86,13.15a1.85,1.85,0,1,1,0,3.7H10.12a1.85,1.85,0,1,1,0-3.7Z"/><path class="cls-1" d="M47,39V10.25C46,5.89,43.41,3.44,39,3H11.37C6.49,3.58,3.78,6.29,3,10.88V38.26c.18,5.19,2.86,8.21,8.37,8.74H38.86C43.68,46.77,46.43,44.15,47,39ZM50,8.24V40.92c-.65,5.84-3.78,8.82-9.25,9.08H9.51C3.25,49.39.2,46,0,40.07V9C.89,3.74,4,.66,9.51,0H41C45.92.5,48.91,3.28,50,8.24Z"/><path class="cls-2" d="M9.51,0H41c5,.5,8,3.28,9,8.24V40.92c-.65,5.84-3.78,8.82-9.25,9.08H9.51C3.25,49.39.2,46,0,40.07V9C.89,3.74,4,.66,9.51,0Z"/><path class="cls-2" d="M3,10.88V38.26c.18,5.19,2.86,8.21,8.37,8.74H38.86c4.82-.23,7.57-2.85,8.14-8V10.25C46,5.89,43.41,3.44,39,3H11.37C6.49,3.58,3.78,6.29,3,10.88Z"/><path class="cls-2" d="M10.12,26.85H39.86a1.85,1.85,0,1,0,0-3.7H10.12A1.85,1.85,0,1,0,10.12,26.85Z"/><path class="cls-2" d="M10.12,36.85H39.86a1.85,1.85,0,1,0,0-3.7H10.12A1.85,1.85,0,1,0,10.12,36.85Z"/><path class="cls-2" d="M10.12,16.85H39.86a1.85,1.85,0,1,0,0-3.7H10.12A1.85,1.85,0,1,0,10.12,16.85Z"/></svg>