<svg id="Слой_1" data-name="Слой 1" xmlns="http://www.w3.org/2000/svg" viewBox="0 0 50 50"><defs><style>.cls-1{fill:#5d001a;}.cls-2{fill:none;stroke:#5d001a;stroke-miterlimit:10;stroke-width:0.25px;}</style></defs><path class="cls-1" d="M34.86,23.89c1.07-3.3-.57-5.85-3.72-6.6l-.71,2.14c2.5.07,3.3,1.58,2.47,4.46Zm2.76.29h1.86Q41,14.51,31.9,13.25l-.42,1.93C36.71,15.68,38.48,18.9,37.62,24.18ZM32.9,10.25c6.91,1.55,10.05,6.2,9.79,13.64h1.93C45.22,16,41.68,10.57,33.33,8ZM25,1A24,24,0,1,1,1,25,24,24,0,0,1,25,1ZM35.07,40.32a2,2,0,0,0,3.57-.82C36.3,36.22,34.22,32.76,32,29.32c-.64-1-3.14.68-2.46,1.72,1.53,2.1-2.22,3.65-5.25,2-2.33-1.42-4.18-4.54-5.47-7.32-3.11-4.61,2.32-9.82,4.61-7.39.64.92,2.93-.43,2.46-1.29A73.46,73.46,0,0,0,18.82,6.82C17.41,5.91,15.21,8.5,16.68,10a12.78,12.78,0,0,0-4.36,3.4,17.1,17.1,0,0,0-.25,12.43c2.81,6.12,6.27,10.4,11.93,15.07C26.71,42.79,31.46,42.09,35.07,40.32Z"/><circle class="cls-2" cx="25" cy="25" r="24"/><path class="cls-2" d="M16.68,10a12.78,12.78,0,0,0-4.36,3.4,17.1,17.1,0,0,0-.25,12.43c2.81,6.12,6.27,10.4,11.93,15.07,2.71,1.93,7.46,1.23,11.07-.54a2,2,0,0,0,3.57-.82C36.3,36.22,34.22,32.76,32,29.32c-.64-1-3.14.68-2.46,1.72,1.53,2.1-2.22,3.65-5.25,2-2.33-1.42-4.18-4.54-5.47-7.32-3.11-4.61,2.32-9.82,4.61-7.39.64.92,2.93-.43,2.46-1.29A73.46,73.46,0,0,0,18.82,6.82C17.41,5.91,15.21,8.5,16.68,10Z"/><path class="cls-2" d="M31.48,15.18c5.23.5,7,3.72,6.14,9h1.86Q41,14.51,31.9,13.25Z"/><path class="cls-2" d="M32.9,10.25c6.91,1.55,10.05,6.2,9.79,13.64h1.93C45.22,16,41.68,10.57,33.33,8Z"/><path class="cls-2" d="M30.43,19.43c2.5.07,3.3,1.58,2.47,4.46h2c1.07-3.3-.57-5.85-3.72-6.6Z"/></svg>