<svg id="Слой_1" data-name="Слой 1" xmlns="http://www.w3.org/2000/svg" viewBox="0 0 50 50"><defs><style>.cls-1{fill:#5d001a;}.cls-1,.cls-2{stroke:#5d001a;stroke-miterlimit:10;stroke-width:0.25px;}.cls-2{fill:none;}</style></defs><circle class="cls-1" cx="25" cy="24.5" r="10"/><path class="cls-1" d="M15.11,26c.6,3.81,1.44,7.22,3,9.5.64.27,1.55-.64,2.56-2A10.06,10.06,0,0,1,15.11,26Z"/><path class="cls-1" d="M25,0A25,25,0,1,0,50,25,25,25,0,0,0,25,0Zm-.3,41.65-3.59-.85c-2.54,1.75-5.68,3.93-7.89.85a24.6,24.6,0,0,0-2.49-10A17.44,17.44,0,0,1,9,24.83C9,15.5,16.18,8,25,8c9.43,0,17.07,7,17.07,15.67C42.07,33.59,34.3,41.65,24.7,41.65Z"/><path class="cls-2" d="M42.07,23.63c0,10-7.77,18-17.37,18l-3.59-.85c-2.54,1.75-5.68,3.93-7.89.85a24.6,24.6,0,0,0-2.49-10A17.44,17.44,0,0,1,9,24.83C9,15.5,16.18,8,25,8,34.43,8,42.07,15,42.07,23.63Z"/></svg>