<svg id="Слой_1" data-name="Слой 1" xmlns="http://www.w3.org/2000/svg" viewBox="0 0 50 50"><defs><style>.cls-1{fill:#5d001a;}.cls-2{fill:none;stroke:#5d001a;stroke-miterlimit:10;stroke-width:0.25px;}</style></defs><path class="cls-1" d="M6.07,13.69Q6.7,37.41,27.33,37.28L27.19,28c4.87,1,7.33,4.65,9.19,8.57h5.9c-.35-4.74-2.86-8.63-7.82-11.52,4.16-1.83,6.53-5.72,7.82-11.31h-6.1c-1.72,5.06-4.69,8.18-9,9.25V13.69h-6.1l.34,16.24c-4.83-1.72-7.6-6.94-7.95-16.24ZM49,25A24,24,0,1,1,25,1,24,24,0,0,1,49,25Z"/><circle class="cls-2" cx="25" cy="25" r="24"/><path class="cls-2" d="M6.07,13.69Q6.7,37.41,27.33,37.28L27.19,28c4.87,1,7.33,4.65,9.19,8.57h5.9c-.35-4.74-2.86-8.63-7.82-11.52,4.16-1.83,6.53-5.72,7.82-11.31h-6.1c-1.72,5.06-4.69,8.18-9,9.25V13.69h-6.1l.34,16.24c-4.83-1.72-7.6-6.94-7.95-16.24Z"/></svg>